<svg xmlns="http://www.w3.org/2000/svg" version="1.1" xmlns:xlink="http://www.w3.org/1999/xlink" width="95" height="147"><rect width="95" height="147" stroke-width="2" stroke="#d3d3d3" fill="black" rx="7" ry="7"></rect><svg x="27" y="30"><svg width="40" height="41" viewBox="0 0 40 41" fill="none" xmlns="http://www.w3.org/2000/svg">
<path fill-rule="evenodd" clip-rule="evenodd" d="M28.7541 20.4094C28.7541 18.5733 30.2494 17.0797 32.0877 17.0797C33.9264 17.0797 35.4218 18.5733 35.4218 20.4094C35.4218 22.245 33.9264 23.7386 32.0877 23.7386C30.2494 23.7386 28.7541 22.245 28.7541 20.4094M16.4464 8.10169C16.4464 6.26565 17.9418 4.77202 19.78 4.77202C21.6187 4.77202 23.1141 6.26565 23.1141 8.10169C23.1141 9.9373 21.6187 11.4309 19.78 11.4309C17.9418 11.4309 16.4464 9.9373 16.4464 8.10169M4.57823 20.4094C4.57823 18.5733 6.07362 17.0797 7.91186 17.0797C9.75054 17.0797 11.2459 18.5733 11.2459 20.4094C11.2459 22.245 9.75054 23.7386 7.91186 23.7386C6.07362 23.7386 4.57823 22.245 4.57823 20.4094M19.78 27.6292C18.7589 27.6292 17.8046 27.9122 16.9826 28.3966L12.3185 23.7373C13.0213 22.8103 13.4437 21.6595 13.4437 20.4094C13.4437 18.9369 12.8609 17.6006 11.918 16.6089L16.2125 12.3188C17.1769 13.1342 18.4209 13.6287 19.78 13.6287C21.1453 13.6287 22.3945 13.1294 23.3602 12.3074L27.8837 16.8265C27.0582 17.7927 26.5563 19.0428 26.5563 20.4094C26.5563 21.5531 26.9057 22.6169 27.5035 23.4995L22.5927 28.4054C21.7672 27.9158 20.8077 27.6292 19.78 27.6292M23.1141 33.1566C23.1141 34.9922 21.6187 36.4859 19.78 36.4859C17.9418 36.4859 16.4464 34.9922 16.4464 33.1566C16.4464 31.3206 17.9418 29.827 19.78 29.827C21.6187 29.827 23.1141 31.3206 23.1141 33.1566M32.0877 14.8819C31.2046 14.8819 30.3716 15.0955 29.6301 15.4648L24.725 10.5645C25.0974 9.82213 25.3119 8.98741 25.3119 8.10169C25.3119 5.05378 22.8301 2.57422 19.78 2.57422C16.7303 2.57422 14.2486 5.05378 14.2486 8.10169C14.2486 8.99356 14.4661 9.834 14.8428 10.5804L10.089 15.3298C9.42043 15.0424 8.68505 14.8819 7.91186 14.8819C4.86219 14.8819 2.38043 17.3615 2.38043 20.4094C2.38043 23.4573 4.86219 25.9364 7.91186 25.9364C8.91582 25.9364 9.85516 25.6639 10.6679 25.1949L15.3453 29.8674C14.6596 30.7878 14.2486 31.9237 14.2486 33.1566C14.2486 36.2045 16.7303 38.6837 19.78 38.6837C22.8301 38.6837 25.3119 36.2045 25.3119 33.1566C25.3119 31.9298 24.9048 30.7988 24.2253 29.881L29.0736 25.0375C29.9418 25.6041 30.976 25.9364 32.0877 25.9364C35.1378 25.9364 37.6196 23.4573 37.6196 20.4094C37.6196 17.3615 35.1378 14.8819 32.0877 14.8819" fill="#20BEFF"></path>
</svg></svg><defs><linearGradient x1="0%" y1="0%" x2="100%" y2="100%" id="goldGradient"><stop stop-color="#ad7615" offset="0"></stop><stop stop-color="#fff700" offset="0.5"></stop><stop stop-color="#ad7615" offset="1"></stop><animate attributeName="x1" from="50%" to="0%" dur="4s" repeatCount="indefinite"></animate><animate attributeName="y1" from="50%" to="0%" dur="4s" repeatCount="indefinite"></animate></linearGradient><linearGradient x1="0%" y1="0%" x2="100%" y2="100%" id="silverGradient"><stop stop-color="#838280" offset="0"></stop><stop stop-color="#e0e0e0" offset="0.5"></stop><stop stop-color="#838280" offset="1"></stop><animate attributeName="x1" from="50%" to="0%" dur="4s" repeatCount="indefinite"></animate><animate attributeName="y1" from="50%" to="0%" dur="4s" repeatCount="indefinite"></animate></linearGradient><linearGradient x1="0%" y1="0%" x2="100%" y2="100%" id="bronzeGradient"><stop stop-color="#8e5b3d" offset="0"></stop><stop stop-color="#e9b582" offset="0.5"></stop><stop stop-color="#8e5b3d" offset="1"></stop><animate attributeName="x1" from="50%" to="0%" dur="4s" repeatCount="indefinite"></animate><animate attributeName="y1" from="50%" to="0%" dur="4s" repeatCount="indefinite"></animate></linearGradient></defs><circle r="8" cx="24" cy="90" fill="url(#goldGradient)"></circle><circle r="8" cx="47" cy="90" fill="url(#silverGradient)"></circle><circle r="8" cx="70" cy="90" fill="url(#bronzeGradient)"></circle><text x="9.5" y="18" font-family="'Ubuntu','Helvetica', 'Arial', sans-serif" font-weight="bold" font-size="13" fill="white">Discussions</text><text x="20.5" y="111" font-family="'Ubuntu', 'Helvetica', 'Arial', sans-serif" font-size="13" fill="#AD7615">4</text><text x="43.5" y="111" font-family="'Ubuntu', 'Helvetica', 'Arial', sans-serif" font-size="13" fill="#838280">3</text><text x="62" y="111" font-family="'Ubuntu', 'Helvetica', 'Arial', sans-serif" font-size="13" fill="#8E5B3D">17</text><text x="10" y="135" font-family="'Ubuntu', 'Helvetica', 'Arial', sans-serif" font-weight="bold" font-size="14" fill="white">Not ranked</text></svg>