<svg xmlns="http://www.w3.org/2000/svg" version="1.1" xmlns:xlink="http://www.w3.org/1999/xlink" width="95" height="120"><rect width="95" height="120" stroke-width="2" stroke="#d3d3d3" fill="black" rx="7" ry="7"></rect><svg xmlns="http://www.w3.org/2000/svg" version="1.1" xmlns:xlink="http://www.w3.org/1999/xlink" x="27" y="30"><svg width="40" height="41" viewBox="0 0 40 41" fill="none" xmlns="http://www.w3.org/2000/svg">
<path fill-rule="evenodd" clip-rule="evenodd" d="M29.336 28.0841C29.016 28.0261 28.6881 27.9874 28.3519 27.9874C25.693 27.9874 23.4697 29.758 22.9624 32.3953H16.5985C16.0912 29.758 13.8679 27.9874 11.209 27.9874C11.0332 27.9874 10.8596 27.9993 10.6881 28.0155L8.66483 21.7848C10.5549 20.9131 11.8727 19.005 11.8727 16.7896C11.8727 15.921 11.6648 15.1017 11.3048 14.3703L16.2996 10.7382C17.2776 11.6322 18.5743 12.1826 20.0002 12.1826C21.4358 12.1826 22.7404 11.6248 23.7207 10.7202L28.7075 14.3461C28.34 15.0837 28.1277 15.9118 28.1277 16.79C28.1277 19.0208 29.4635 20.9417 31.3747 21.8045L29.336 28.0841ZM31.6525 33.4933C31.6525 35.3158 30.1721 36.7984 28.3519 36.7984C26.5316 36.7984 25.0508 35.3158 25.0508 33.4933C25.0508 31.6714 26.5316 30.1887 28.3519 30.1887C30.1721 30.1887 31.6525 31.6714 31.6525 33.4933V33.4933ZM14.5101 33.4933C14.5101 35.3158 13.0292 36.7984 11.209 36.7984C9.38879 36.7984 7.90791 35.3158 7.90791 33.4933C7.90791 31.6714 9.38879 30.1887 11.209 30.1887C13.0292 30.1887 14.5101 31.6714 14.5101 33.4933V33.4933ZM9.67494 16.79C9.67494 18.6125 8.19406 20.0951 6.37384 20.0951C4.55362 20.0951 3.07274 18.6125 3.07274 16.79C3.07274 14.9681 4.55362 13.4854 6.37384 13.4854C8.19406 13.4854 9.67494 14.9681 9.67494 16.79V16.79ZM16.6991 6.68015C16.6991 4.85817 18.18 3.37554 20.0002 3.37554C21.8204 3.37554 23.3013 4.85817 23.3013 6.68015C23.3013 8.50257 21.8204 9.98521 20.0002 9.98521C18.18 9.98521 16.6991 8.50257 16.6991 6.68015V6.68015ZM33.6261 20.0951C31.8064 20.0951 30.3255 18.6125 30.3255 16.79C30.3255 14.9681 31.8064 13.4854 33.6261 13.4854C35.4464 13.4854 36.9272 14.9681 36.9272 16.79C36.9272 18.6125 35.4464 20.0951 33.6261 20.0951V20.0951ZM33.6262 11.2876C32.2648 11.2876 31.02 11.7883 30.0587 12.6111L25.0086 8.93905C25.3207 8.24894 25.4991 7.48587 25.4991 6.68015C25.4991 3.64631 23.0323 1.17773 20.0002 1.17773C16.9681 1.17773 14.5013 3.64631 14.5013 6.68015C14.5013 7.49554 14.6842 8.26696 15.0033 8.96367L9.96153 12.6296C8.99758 11.7958 7.74483 11.2876 6.37384 11.2876C3.34175 11.2876 0.874939 13.7562 0.874939 16.79C0.874939 19.8243 3.34175 22.2929 6.37384 22.2929C6.42175 22.2929 6.46835 22.2867 6.51626 22.2854L8.58527 28.6586C6.87406 29.5927 5.7101 31.4094 5.7101 33.4933C5.7101 36.5276 8.17692 38.9922 11.209 38.9922C13.8622 38.9922 16.0824 37.2305 16.5958 34.5931H22.9646C23.478 37.2305 25.6987 38.9922 28.3519 38.9922C31.384 38.9922 33.8503 36.5259 33.8503 33.4916C33.8503 31.5769 32.867 29.8903 31.38 28.9043L33.5286 22.2872C33.5611 22.2881 33.5932 22.2925 33.6262 22.2925C36.6582 22.2925 39.1251 19.8243 39.1251 16.79C39.1251 13.7558 36.6582 11.2876 33.6262 11.2876V11.2876Z" fill="#651FFF"></path>
</svg></svg><defs><linearGradient x1="0%" y1="0%" x2="100%" y2="100%" id="goldGradient"><stop stop-color="#ad7615" offset="0"></stop><stop stop-color="#fff700" offset="0.5"></stop><stop stop-color="#ad7615" offset="1"></stop><animate attributeName="x1" from="50%" to="0%" dur="4s" repeatCount="indefinite"></animate><animate attributeName="y1" from="50%" to="0%" dur="4s" repeatCount="indefinite"></animate></linearGradient><linearGradient x1="0%" y1="0%" x2="100%" y2="100%" id="silverGradient"><stop stop-color="#838280" offset="0"></stop><stop stop-color="#e0e0e0" offset="0.5"></stop><stop stop-color="#838280" offset="1"></stop><animate attributeName="x1" from="50%" to="0%" dur="4s" repeatCount="indefinite"></animate><animate attributeName="y1" from="50%" to="0%" dur="4s" repeatCount="indefinite"></animate></linearGradient><linearGradient x1="0%" y1="0%" x2="100%" y2="100%" id="bronzeGradient"><stop stop-color="#8e5b3d" offset="0"></stop><stop stop-color="#e9b582" offset="0.5"></stop><stop stop-color="#8e5b3d" offset="1"></stop><animate attributeName="x1" from="50%" to="0%" dur="4s" repeatCount="indefinite"></animate><animate attributeName="y1" from="50%" to="0%" dur="4s" repeatCount="indefinite"></animate></linearGradient></defs><circle r="8" cx="24" cy="90" fill="url(#goldGradient)"></circle><circle r="8" cx="47" cy="90" fill="url(#silverGradient)"></circle><circle r="8" cx="70" cy="90" fill="url(#bronzeGradient)"></circle>
      <text x="13.4" y="18" font-family="'Ubuntu','Helvetica', 'Arial', sans-serif" font-weight="bold" font-size="13" fill="white">Notebooks</text>
      <text x="20.3" y="111" font-family="'Ubuntu', 'Helvetica', 'Arial', sans-serif" font-size="13" fill="#AD7615">0</text>
      <text x="43.3" y="111" font-family="'Ubuntu', 'Helvetica', 'Arial', sans-serif" font-size="13" fill="#838280">2</text>
      <text x="66.3" y="111" font-family="'Ubuntu', 'Helvetica', 'Arial', sans-serif" font-size="13" fill="#8E5B3D">4</text>
    </svg>