<svg xmlns="http://www.w3.org/2000/svg" version="1.1" xmlns:xlink="http://www.w3.org/1999/xlink" width="95" height="120"><rect width="95" height="120" stroke-width="2" stroke="#d3d3d3" fill="white" rx="7" ry="7"></rect><svg xmlns="http://www.w3.org/2000/svg" version="1.1" xmlns:xlink="http://www.w3.org/1999/xlink" x="27" y="30"><svg width="40" height="40" viewBox="0 0 40 40" fill="none" xmlns="http://www.w3.org/2000/svg">
<path fill-rule="evenodd" clip-rule="evenodd" d="M32.4965 30.1981C31.0086 30.1981 29.798 28.9753 29.798 27.472C29.798 25.9691 31.0086 24.7462 32.4965 24.7462C33.9844 24.7462 35.195 25.9691 35.195 27.472C35.195 28.9753 33.9844 30.1981 32.4965 30.1981M19.7493 30.021C18.3106 30.021 17.0192 30.6517 16.1224 31.6487L12.0016 29.2517C12.2156 28.6992 12.3238 28.1001 12.3238 27.472C12.3238 25.0381 10.4297 23.0161 8.2319 22.6227V17.8161C10.4297 17.4227 12.3238 15.4007 12.3238 12.9665C12.3238 12.4175 12.2372 11.8913 12.0715 11.3977L16.5624 8.788C17.4192 9.52778 18.5321 9.97833 19.7475 9.97833C20.9888 9.97833 22.1216 9.50756 22.9853 8.73877L27.8104 11.544C27.6745 11.995 27.6759 12.472 27.6759 12.9665C27.6759 15.2939 29.3308 17.2443 31.5286 17.7555V22.6834C29.3308 23.1946 27.6763 25.1449 27.6763 27.472C27.6763 28.046 27.7413 28.5946 27.9216 29.1071L23.4424 31.701C22.5444 30.6737 21.213 30.021 19.7493 30.021M22.4477 34.9445C22.4477 36.4478 21.2372 37.6706 19.7493 37.6706C18.2613 37.6706 17.0508 36.4478 17.0508 34.9445C17.0508 33.4416 18.2613 32.2188 19.7493 32.2188C21.2372 32.2188 22.4477 33.4416 22.4477 34.9445M7.44157 30.1981C5.95366 30.1981 4.74311 28.9753 4.74311 27.472C4.74311 25.9691 5.95366 24.7462 7.44157 24.7462C8.92948 24.7462 10.14 25.9691 10.14 27.472C10.14 28.9753 8.92948 30.1981 7.44157 30.1981M10.14 12.9665C10.14 14.4698 8.92948 15.6926 7.44157 15.6926C5.95366 15.6926 4.74311 14.4698 4.74311 12.9665C4.74311 11.4636 5.95366 10.2407 7.44157 10.2407C8.92948 10.2407 10.14 11.4636 10.14 12.9665M17.0508 5.05438C17.0508 3.55152 18.2613 2.32866 19.7493 2.32866C21.2372 2.32866 22.4477 3.55152 22.4477 5.05438C22.4477 6.55767 21.2372 7.78053 19.7493 7.78053C18.2613 7.78053 17.0508 6.55767 17.0508 5.05438M32.4965 10.2407C33.9844 10.2407 35.195 11.4636 35.195 12.9665C35.195 14.4698 33.9844 15.6926 32.4965 15.6926C31.0086 15.6926 29.798 14.4698 29.798 12.9665C29.798 11.4636 31.0086 10.2407 32.4965 10.2407M37.4684 12.9665C37.4684 10.2517 35.2341 8.04295 32.5343 8.04295C31.1123 8.04295 29.8152 8.65921 28.9198 9.63591L24.2794 6.94273C24.5202 6.36075 24.6499 5.72339 24.6499 5.05438C24.6499 2.33965 22.4512 0.130859 19.7515 0.130859C17.0521 0.130859 14.8543 2.33965 14.8543 5.05438C14.8543 5.748 14.9989 6.40778 15.2574 7.0069L10.9334 9.52119C10.0446 8.60998 8.80816 8.04295 7.44157 8.04295C4.74223 8.04295 2.53168 10.2517 2.53168 12.9665C2.53168 15.1994 3.83629 17.0869 6.03409 17.6882V22.7506C3.83629 23.3515 2.53168 25.239 2.53168 27.472C2.53168 30.1871 4.73519 32.3959 7.43453 32.3959C8.71849 32.3959 9.88904 31.8922 10.7629 31.0759L15.0499 33.5682C14.9229 34.0056 14.8521 34.4667 14.8521 34.9445C14.8521 37.6596 17.049 39.8684 19.7488 39.8684C22.4486 39.8684 24.6451 37.6596 24.6451 34.9445C24.6451 34.4917 24.5791 34.0548 24.4649 33.6381L29.0543 30.9691C29.9396 31.85 31.1554 32.3959 32.4965 32.3959C35.1963 32.3959 37.4684 30.1871 37.4684 27.472C37.4684 25.13 35.9242 23.1682 33.7264 22.6724V17.766C35.9242 17.2702 37.4684 15.3089 37.4684 12.9665M20.1888 23.1651C18.7009 23.1651 17.4904 21.9423 17.4904 20.439C17.4904 18.9361 18.7009 17.7133 20.1888 17.7133C21.6767 17.7133 22.8873 18.9361 22.8873 20.439C22.8873 21.9423 21.6767 23.1651 20.1888 23.1651M20.1888 15.5155C17.489 15.5155 15.2926 17.7243 15.2926 20.439C15.2926 23.1542 17.489 25.3629 20.1888 25.3629C22.8886 25.3629 25.0851 23.1542 25.0851 20.439C25.0851 17.7243 22.8886 15.5155 20.1888 15.5155" fill="#FF5C19"></path>
</svg></svg><defs><linearGradient x1="0%" y1="0%" x2="100%" y2="100%" id="goldGradient"><stop stop-color="#ad7615" offset="0"></stop><stop stop-color="#fff700" offset="0.5"></stop><stop stop-color="#ad7615" offset="1"></stop><animate attributeName="x1" from="50%" to="0%" dur="4s" repeatCount="indefinite"></animate><animate attributeName="y1" from="50%" to="0%" dur="4s" repeatCount="indefinite"></animate></linearGradient><linearGradient x1="0%" y1="0%" x2="100%" y2="100%" id="silverGradient"><stop stop-color="#838280" offset="0"></stop><stop stop-color="#e0e0e0" offset="0.5"></stop><stop stop-color="#838280" offset="1"></stop><animate attributeName="x1" from="50%" to="0%" dur="4s" repeatCount="indefinite"></animate><animate attributeName="y1" from="50%" to="0%" dur="4s" repeatCount="indefinite"></animate></linearGradient><linearGradient x1="0%" y1="0%" x2="100%" y2="100%" id="bronzeGradient"><stop stop-color="#8e5b3d" offset="0"></stop><stop stop-color="#e9b582" offset="0.5"></stop><stop stop-color="#8e5b3d" offset="1"></stop><animate attributeName="x1" from="50%" to="0%" dur="4s" repeatCount="indefinite"></animate><animate attributeName="y1" from="50%" to="0%" dur="4s" repeatCount="indefinite"></animate></linearGradient></defs><circle r="8" cx="24" cy="90" fill="url(#goldGradient)"></circle><circle r="8" cx="47" cy="90" fill="url(#silverGradient)"></circle><circle r="8" cx="70" cy="90" fill="url(#bronzeGradient)"></circle>
      <text x="6" y="18" font-family="'Ubuntu','Helvetica', 'Arial', sans-serif" font-weight="bold" font-size="13" fill="black">Competitions</text>
      <text x="20.3" y="111" font-family="'Ubuntu', 'Helvetica', 'Arial', sans-serif" font-size="13" fill="#AD7615">2</text>
      <text x="43.3" y="111" font-family="'Ubuntu', 'Helvetica', 'Arial', sans-serif" font-size="13" fill="#838280">2</text>
      <text x="66.3" y="111" font-family="'Ubuntu', 'Helvetica', 'Arial', sans-serif" font-size="13" fill="#8E5B3D">8</text>
    </svg>